<svg viewBox="0 0 703 723" fill="none" xmlns="http://www.w3.org/2000/svg">
<path fill-rule="evenodd" clip-rule="evenodd" d="M0 141.048C2.27649 171.939 8.65503 200.454 21.3069 222C51.4474 273.328 106.345 287.432 151.239 298.965C181.564 306.756 207.325 313.374 217.807 329.5C227.419 344.287 227.6 368.026 227.8 394.098C228.141 438.552 228.533 489.787 275.807 515C311.514 534.044 320.928 561.36 330.757 589.882C341.573 621.268 352.893 654.114 400.307 679C458.963 709.786 585.245 720.553 672.909 723H703V0H10.3989C5.76978 24.6142 1.78503 52.9117 0 81.6016V141.048Z"/>
</svg>
